HIERARCHY
ROOT Pelvis
{
	OFFSET 0.000000 0.000000 0.000000
	CHANNELS 6 Xposition Yposition Zposition Xrotation Yrotation Zrotation
	JOINT LeftUpLeg_virtual
	{
		OFFSET 0.000000 0.000000 0.000000
		CHANNELS 3 Xrotation Yrotation Zrotation
		JOINT LeftUpLeg
		{
			OFFSET 18.735201 -5.666702 -4.541200
			CHANNELS 3 Xrotation Yrotation Zrotation
			JOINT LeftLeg
			{
				OFFSET -0.021200 -31.938179 0.493100
				CHANNELS 3 Xrotation Yrotation Zrotation
				JOINT LeftFoot
				{
					OFFSET 0.021200 -31.938179 -4.336299
					CHANNELS 3 Xrotation Yrotation Zrotation
					JOINT LeftToeBase
					{
						OFFSET 0.943001 -26.722000 15.023500
						CHANNELS 3 Xrotation Yrotation Zrotation
						End Site
						{
							OFFSET 0 0 0
						}
					}
				}
			}
		}
	}
	JOINT RightUpLeg_virtual
	{
		OFFSET 0.000000 0.000000 0.000000
		CHANNELS 3 Xrotation Yrotation Zrotation
		JOINT RightUpLeg
		{
			OFFSET -18.735201 -5.666702 -4.541200
			CHANNELS 3 Xrotation Yrotation Zrotation
			JOINT RightLeg
			{
				OFFSET 0.018946 -31.938133 0.493100
				CHANNELS 3 Xrotation Yrotation Zrotation
				JOINT RightFoot
				{
					OFFSET -0.018946 -31.938126 -4.336299
					CHANNELS 3 Xrotation Yrotation Zrotation
					JOINT RightToeBase
					{
						OFFSET -0.943001 -26.722004 15.023500
						CHANNELS 3 Xrotation Yrotation Zrotation
						End Site
						{
							OFFSET 0 0 0
						}
					}
				}
			}
		}
	}
	JOINT Hips_virtual
	{
		OFFSET 0.000000 0.000000 0.000000
		CHANNELS 3 Xrotation Yrotation Zrotation
		JOINT Hips
		{
			OFFSET -0.000000 -0.000000 -0.000000
			CHANNELS 3 Xrotation Yrotation Zrotation
			JOINT Spine
			{
				OFFSET 0.000000 10.199997 -0.299500
				CHANNELS 3 Xrotation Yrotation Zrotation
				JOINT Spine1
				{
					OFFSET 0.000000 11.900002 -1.516600
					CHANNELS 3 Xrotation Yrotation Zrotation
					JOINT Spine2
					{
						OFFSET 0.000000 13.600006 -2.842500
						CHANNELS 3 Xrotation Yrotation Zrotation
						JOINT Neck_virtual
						{
							OFFSET 0.000000 0.000000 0.000000
							CHANNELS 3 Xrotation Yrotation Zrotation
							JOINT Neck
							{
								OFFSET 0.000000 9.624100 -2.890100
								CHANNELS 3 Xrotation Yrotation Zrotation
								JOINT Head
								{
									OFFSET 0.000000 14.068802 -1.351900
									CHANNELS 3 Xrotation Yrotation Zrotation
									End Site
									{
										OFFSET 0 0 0
									}
								}
							}
						}
						JOINT LeftShoulder_virtual
						{
							OFFSET 0.000000 0.000000 0.000000
							CHANNELS 3 Xrotation Yrotation Zrotation
							JOINT LeftShoulder
							{
								OFFSET 15.263000 10.923401 -0.547700
								CHANNELS 3 Xrotation Yrotation Zrotation
								JOINT LeftArm
								{
									OFFSET 25.438599 -2.830597 -13.032500
									CHANNELS 3 Xrotation Yrotation Zrotation
									JOINT LeftForeArm
									{
										OFFSET 29.960503 0.000000 0.000000
										CHANNELS 3 Xrotation Yrotation Zrotation
										JOINT LeftHand
										{
											OFFSET 27.849251 0.000000 0.000000
											CHANNELS 3 Xrotation Yrotation Zrotation
											End Site
											{
												OFFSET 0 0 0
											}
										}
									}
								}
							}
						}
						JOINT RightShoulder_virtual
						{
							OFFSET 0.000000 0.000000 0.000000
							CHANNELS 3 Xrotation Yrotation Zrotation
							JOINT RightShoulder
							{
								OFFSET -15.263000 10.923401 -0.547700
								CHANNELS 3 Xrotation Yrotation Zrotation
								JOINT RightArm
								{
									OFFSET -25.438599 -2.830597 -13.032500
									CHANNELS 3 Xrotation Yrotation Zrotation
									JOINT RightForeArm
									{
										OFFSET -29.960503 0.000000 0.000000
										CHANNELS 3 Xrotation Yrotation Zrotation
										JOINT RightHand
										{
											OFFSET -27.849251 0.000000 0.000000
											CHANNELS 3 Xrotation Yrotation Zrotation
											End Site
											{
												OFFSET 0 0 0
											}
										}
									}
								}
							}
						}
					}
				}
			}
		}
	}
}
MOTION
Frames: 8
Frame Time: 0.03333333
-2.189141 82.799667 0.013109 0.000000 0.000000 0.000000 -2.683287 -38.516963 0.108962 -46.910569 -0.694780 16.420109 40.414178 -9.687314 0.325597 -11.664220 -9.337063 -11.141669 0.000000 0.000000 0.000000 8.984381 -47.882266 -0.340653 -23.010506 -18.170974 -23.147549 37.149525 1.478747 2.147005 -15.950708 -3.918282 15.567683 0.000000 0.000000 0.000000 1.950409 -19.889557 1.473503 4.069273 -30.123245 4.102836 14.568556 -2.039999 -3.295733 7.035967 -0.865742 -2.183856 0.000000 0.000000 0.000000 5.358697 -0.888040 -0.545840 1.123801 -0.409395 -0.184569 0.000000 0.000000 0.000000 5.362019 1.427099 -1.594588 1.223842 -3.087986 -8.151004 -25.543712 -0.416578 -42.162806 -5.296680 -31.679589 -4.657175 0.000000 0.000000 0.000000 4.936593 -0.144010 1.014643 1.571214 8.475421 4.654299 -14.855243 -6.607983 45.836638 -5.921358 30.790807 8.189319 0.000000 0.000000 0.000000 
-1.078073 83.104095 -2.027573 0.000000 0.000000 0.000000 -4.220398 -35.645904 -0.918102 -48.460025 0.075492 16.071640 40.424488 -12.845489 0.760547 -12.270381 -12.465536 -12.708636 0.000000 0.000000 0.000000 8.999030 -46.130650 -1.082557 -22.313716 -17.649865 -23.477927 36.429135 0.211707 2.715065 -16.480939 -5.396371 15.475337 0.000000 0.000000 0.000000 2.118493 -20.180446 0.267967 10.745922 -29.699510 3.614283 14.681842 -1.742014 -2.759172 6.973690 -0.390286 -1.411907 0.000000 0.000000 0.000000 4.505815 -0.918317 -0.642470 0.853502 -0.287657 -0.152797 0.000000 0.000000 0.000000 4.707017 1.232208 -0.894661 1.729252 -4.323075 -5.696978 -23.913983 -6.926065 -42.145170 -2.446815 -35.874841 -3.905589 0.000000 0.000000 0.000000 4.999391 0.375942 1.608843 2.102491 10.116489 6.633909 -8.149285 -5.429559 43.425810 -3.521213 30.348580 7.084685 0.000000 0.000000 0.000000 
-0.306619 81.908234 -2.054211 0.000000 0.000000 0.000000 -5.066471 -29.817563 -1.973591 -48.840337 1.735763 15.358206 39.714517 -15.037165 0.932037 -12.864179 -14.678372 -13.947774 0.000000 0.000000 0.000000 10.091583 -44.126984 -0.747853 -20.548129 -17.386139 -22.998133 36.314159 -1.096014 3.714014 -16.483366 -7.056573 16.059230 0.000000 0.000000 0.000000 4.899305 -17.174611 2.001527 12.821751 -24.970256 6.793914 16.460903 -0.786226 -2.169342 6.816823 0.203257 -0.287747 0.000000 0.000000 0.000000 6.543840 -1.241628 0.934226 1.587852 -0.580421 0.411834 0.000000 0.000000 0.000000 4.919043 1.724895 -0.265701 1.742032 -6.922603 -4.055595 -24.776846 -14.354233 -41.890257 -1.724997 -41.118511 -4.046699 0.000000 0.000000 0.000000 5.248305 0.831859 2.374454 2.079647 10.189321 8.314610 1.631729 -3.481256 40.917628 0.461938 25.279053 4.309049 0.000000 0.000000 0.000000 
-1.806514 80.871849 -0.527750 0.000000 0.000000 0.000000 -4.938304 -24.864534 -2.171768 -48.755212 3.087437 15.391855 42.781184 -17.158690 1.664733 -11.070879 -17.170904 -14.822270 0.000000 0.000000 0.000000 10.076915 -40.426582 -0.757679 -20.311866 -16.312775 -22.348751 39.243088 -3.061290 3.815103 -14.444547 -8.643692 14.972558 0.000000 0.000000 0.000000 3.424412 -11.709015 0.741900 10.456963 -18.314423 3.992710 13.756901 0.077219 -0.770126 6.061020 0.931250 0.064703 0.000000 0.000000 0.000000 8.104967 -1.377514 3.175876 2.713758 -0.941067 1.543195 0.000000 0.000000 0.000000 5.103261 2.572880 0.468730 1.480702 -3.460724 -0.500307 -19.440884 -17.069558 -37.217349 2.406657 -41.983295 -1.298700 0.000000 0.000000 0.000000 4.289492 1.548064 3.448069 0.320941 10.680770 13.368368 10.767265 -3.381117 39.890043 4.406477 20.974471 3.332569 0.000000 0.000000 0.000000 
-2.769979 81.687500 -1.403301 0.000000 0.000000 0.000000 -6.446636 -20.996234 -2.811793 -50.476570 3.933235 15.185281 45.490078 -20.028927 1.725371 -10.101390 -19.814908 -17.300357 0.000000 0.000000 0.000000 8.056359 -35.749613 -2.162506 -21.956142 -14.432893 -22.401962 44.186461 -5.772357 2.987601 -10.698484 -10.304712 11.871015 0.000000 0.000000 0.000000 3.325427 -4.513124 0.014210 1.947992 -10.129223 2.252055 13.345723 2.217306 -0.188029 4.718288 1.862218 1.182048 0.000000 0.000000 0.000000 11.897242 0.470824 5.086885 4.524036 0.041439 2.614799 0.000000 0.000000 0.000000 4.700725 3.447065 1.248857 0.803564 -0.889405 2.087950 -17.610591 -19.530791 -33.303644 4.634440 -42.590929 0.416359 0.000000 0.000000 0.000000 3.550627 2.391796 4.749672 -0.874219 14.213330 17.852373 23.664982 2.056079 39.687641 9.628819 22.369163 2.849331 0.000000 0.000000 0.000000 
-3.257864 82.121254 0.826427 0.000000 0.000000 0.000000 -5.810698 -17.683228 -3.179548 -49.777483 5.064411 14.881971 48.500828 -22.643108 2.218306 -9.416228 -22.111107 -19.144119 0.000000 0.000000 0.000000 7.392248 -24.811415 -2.208591 -21.525865 -11.372610 -20.443842 46.868505 -7.778951 1.784284 -7.859026 -11.421840 8.478373 0.000000 0.000000 0.000000 0.727163 -1.781519 -0.036464 -1.137811 -0.445100 0.815583 9.888697 4.598398 1.864740 3.747817 3.644866 2.439833 0.000000 0.000000 0.000000 15.481723 3.669124 6.226032 6.877662 1.578673 3.229990 0.000000 0.000000 0.000000 2.839148 4.692708 1.615742 -0.667837 1.272998 3.991587 -18.864610 -16.808804 -32.416696 5.184196 -40.343008 0.297448 0.000000 0.000000 0.000000 4.312395 3.545864 5.366122 -0.913887 17.546969 19.947525 39.386771 11.228390 31.244273 18.402507 23.428821 -1.430231 0.000000 0.000000 0.000000 
-2.870391 82.990608 2.652796 0.000000 0.000000 0.000000 -5.087731 -12.110882 -3.125232 -49.399770 6.563545 15.231248 51.259709 -22.892112 3.039488 -7.745486 -22.788643 -18.720013 0.000000 0.000000 0.000000 9.019110 -10.006339 -0.332354 -18.378415 -8.085990 -16.362476 49.712873 -6.135995 1.201259 -4.472194 -9.482292 8.671221 0.000000 0.000000 0.000000 0.205497 3.582475 0.248066 -6.298493 3.141642 3.142062 9.551150 7.510321 3.279470 4.126123 4.414374 3.205989 0.000000 0.000000 0.000000 14.832746 4.965003 6.389293 6.810016 2.139988 3.241924 0.000000 0.000000 0.000000 0.733471 5.461560 1.972392 -2.604729 0.782314 4.465776 -29.785010 -14.681587 -31.805940 1.246931 -41.916154 -1.211110 0.000000 0.000000 0.000000 3.892231 4.362851 6.017292 -1.287580 18.496198 22.317392 51.702534 13.371502 22.417311 23.995283 23.712231 -5.379708 0.000000 0.000000 0.000000 
-3.619947 83.243225 5.540474 0.000000 0.000000 0.000000 -3.587147 -9.750018 -3.225166 -47.739238 7.500542 15.120820 55.102053 -22.739069 3.294278 -4.772129 -23.160338 -18.996947 0.000000 0.000000 0.000000 9.838548 2.480209 0.380061 -16.333788 -5.066255 -13.719444 54.478880 -5.006846 -0.093610 0.146087 -7.408121 7.291856 0.000000 0.000000 0.000000 -0.489507 6.101801 -0.084412 -10.242987 8.820182 3.818358 9.292376 9.658897 4.116093 3.166832 5.601483 3.407877 0.000000 0.000000 0.000000 11.572525 5.712631 6.404522 5.164940 2.445177 3.238213 0.000000 0.000000 0.000000 -0.516252 5.880011 2.309771 -4.166924 2.428785 5.906675 -32.387934 -15.238521 -30.953038 -0.098379 -45.050712 -1.378630 0.000000 0.000000 0.000000 3.432684 5.073608 6.207551 -2.917222 19.465807 24.030740 56.236783 10.866196 18.506073 25.536477 22.403693 -7.156303 0.000000 0.000000 0.000000 
